<?xml version="1.0" encoding="UTF-8"?>
<svg version="1.1" xmlns="http://www.w3.org/2000/svg" width="668" height="214">
<path d="M0 0 C3.11329861 1.76262676 5.87973855 4.06158737 8.73828125 6.20703125 C9.55232422 5.57474609 9.55232422 5.57474609 10.3828125 4.9296875 C11.09824219 4.38183594 11.81367188 3.83398438 12.55078125 3.26953125 C13.25847656 2.72425781 13.96617187 2.17898437 14.6953125 1.6171875 C20.20540277 -2.18614441 27.34480672 -1.28204829 33.73828125 -0.79296875 C38.79638338 0.43632232 41.74595445 2.7572126 44.67578125 7.01953125 C48.44427912 13.21519724 47.88765549 20.80788979 47.87109375 27.82421875 C47.87205048 28.72198029 47.8730072 29.61974182 47.87399292 30.54470825 C47.8746699 32.42889476 47.87284946 34.31308367 47.86865234 36.19726562 C47.86325933 39.09380232 47.86863292 41.9901866 47.875 44.88671875 C47.87433987 46.72005243 47.87306007 48.55338601 47.87109375 50.38671875 C47.87311798 51.25642303 47.87514221 52.12612732 47.87722778 53.02218628 C47.85325679 59.09205571 47.85325679 59.09205571 46.73828125 60.20703125 C44.06096745 60.30684339 41.4152395 60.34583 38.73828125 60.33203125 C37.61292969 60.33783203 37.61292969 60.33783203 36.46484375 60.34375 C30.86489178 60.33364178 30.86489178 60.33364178 29.73828125 59.20703125 C29.67473066 57.0556066 29.67916914 54.90212859 29.7109375 52.75 C29.72361346 51.39518512 29.73597211 50.04036724 29.74804688 48.68554688 C29.772573 46.55760242 29.80021724 44.42981667 29.83422852 42.30200195 C30.19569143 29.08878862 30.19569143 29.08878862 27.73828125 16.20703125 C24.05712588 13.75292767 22.08534527 13.97415282 17.73828125 14.20703125 C14.68457213 14.87791918 14.68457213 14.87791918 13.56971741 17.01264954 C12.71300998 19.27372888 12.47080278 20.91074897 12.43530273 23.31713867 C12.41866074 24.11443893 12.40201874 24.9117392 12.38487244 25.73320007 C12.37645828 26.58436905 12.36804413 27.43553802 12.359375 28.3125 C12.34238052 29.19231033 12.32538605 30.07212067 12.30787659 30.97859192 C12.25481301 33.7838325 12.21446252 36.58905834 12.17578125 39.39453125 C12.13189567 42.21064249 12.08526693 45.02663761 12.03297424 47.84260559 C12.00094026 49.59421564 11.97407437 51.34592894 11.95274353 53.09770203 C11.85005044 59.09526206 11.85005044 59.09526206 10.73828125 60.20703125 C7.87560558 60.28028293 5.03756225 60.2994133 2.17578125 60.26953125 C1.36947266 60.26501953 0.56316406 60.26050781 -0.26757812 60.25585938 C-2.26565631 60.24403643 -4.26369658 60.22610039 -6.26171875 60.20703125 C-6.27630127 59.02149658 -6.29088379 57.83596191 -6.3059082 56.61450195 C-6.36397813 52.20664648 -6.44121059 47.79929721 -6.52416992 43.3918457 C-6.55737837 41.48600494 -6.585423 39.58006679 -6.6081543 37.67407227 C-6.64177543 34.9307311 -6.6940947 32.18827903 -6.75 29.4453125 C-6.75638992 28.59616776 -6.76277985 27.74702301 -6.7693634 26.87214661 C-6.88512692 22.19080671 -7.2156586 19.002819 -10.26171875 15.20703125 C-13.11496312 13.78040906 -15.09626424 13.89669257 -18.26171875 14.20703125 C-21.80968022 16.14228296 -23.01724051 17.53324585 -24.3984375 21.33984375 C-25.98345963 28.24859235 -25.43088806 35.53562814 -25.32421875 42.58203125 C-25.29656199 44.79024336 -25.2718985 46.9983904 -25.2530365 49.20669556 C-25.23525718 51.19434476 -25.20784572 53.18190088 -25.17993164 55.16943359 C-25.26171875 58.20703125 -25.26171875 58.20703125 -26.26171875 60.20703125 C-28.90761889 60.23387804 -31.55324971 60.25379482 -34.19921875 60.26953125 C-34.95396484 60.27791016 -35.70871094 60.28628906 -36.48632812 60.29492188 C-38.41166188 60.30355566 -40.33707456 60.25927458 -42.26171875 60.20703125 C-43.99239574 58.47635426 -43.38928404 56.14214321 -43.39111328 53.78515625 C-43.39426544 52.62725586 -43.3974176 51.46935547 -43.40066528 50.27636719 C-43.39864105 49.01598633 -43.39661682 47.75560547 -43.39453125 46.45703125 C-43.39596634 44.53165527 -43.39596634 44.53165527 -43.39743042 42.56738281 C-43.39890706 39.84699301 -43.39675394 37.126636 -43.39208984 34.40625 C-43.38639256 30.91218456 -43.38967174 27.41819592 -43.39566231 23.9241333 C-43.40013629 20.60175972 -43.3970076 17.27940702 -43.39453125 13.95703125 C-43.39655548 12.69665039 -43.39857971 11.43626953 -43.40066528 10.13769531 C-43.39751312 8.97979492 -43.39436096 7.82189453 -43.39111328 6.62890625 C-43.38991989 5.09121582 -43.38991989 5.09121582 -43.38870239 3.52246094 C-43.26171875 1.20703125 -43.26171875 1.20703125 -42.26171875 0.20703125 C-39.73122473 0.13389558 -37.22867038 0.11455598 -34.69921875 0.14453125 C-33.98830078 0.14904297 -33.27738281 0.15355469 -32.54492188 0.15820312 C-30.78381862 0.17002261 -29.02275839 0.18795862 -27.26171875 0.20703125 C-26.60171875 1.85703125 -25.94171875 3.50703125 -25.26171875 5.20703125 C-24.53984375 4.58828125 -23.81796875 3.96953125 -23.07421875 3.33203125 C-16.56914388 -1.58291421 -7.77019037 -2.72426364 0 0 Z " fill="#47CCCE" transform="translate(378.26171875,78.79296875)"/>
<path d="M0 0 C3.43957838 1.85824679 5.0395878 3.75655976 6.59375 7.24609375 C7.20863281 6.75238281 7.82351563 6.25867188 8.45703125 5.75 C9.26527344 5.10933594 10.07351563 4.46867187 10.90625 3.80859375 C12.10701172 2.85146484 12.10701172 2.85146484 13.33203125 1.875 C18.9188304 -2.14865327 26.01450613 -1.14836318 32.59375 -0.75390625 C37.9557073 0.25377193 41.07652966 3.43900157 44.4296875 7.52734375 C46.49624023 10.57862966 46.73452438 13.30959802 46.81494141 16.88525391 C46.83811432 17.82277496 46.86128723 18.76029602 46.88516235 19.72622681 C46.9050119 20.73567352 46.92486145 21.74512024 46.9453125 22.78515625 C46.98004166 24.34005264 46.98004166 24.34005264 47.01547241 25.92636108 C47.06308912 28.11687384 47.10832593 30.30743944 47.15136719 32.49804688 C47.21862394 35.86478346 47.29632079 39.23116944 47.375 42.59765625 C47.41989987 44.72264305 47.46419161 46.84764281 47.5078125 48.97265625 C47.53171051 49.98615143 47.55560852 50.99964661 47.58023071 52.04385376 C47.5970993 52.9750705 47.6139679 53.90628723 47.63134766 54.86572266 C47.64831696 55.68940338 47.66528625 56.51308411 47.68276978 57.36172485 C47.59375 59.24609375 47.59375 59.24609375 46.59375 60.24609375 C43.73107433 60.31934543 40.893031 60.3384758 38.03125 60.30859375 C37.22494141 60.30408203 36.41863281 60.29957031 35.58789062 60.29492188 C33.58981244 60.28309893 31.59177217 60.26516289 29.59375 60.24609375 C29.564021 58.52108643 29.564021 58.52108643 29.53369141 56.76123047 C29.45738954 52.4782999 29.36871054 48.19569819 29.27636719 43.91308594 C29.23817878 42.06256624 29.20330849 40.21197488 29.171875 38.36132812 C29.12600359 35.69505268 29.06804641 33.02926627 29.0078125 30.36328125 C28.99626129 29.54117157 28.98471008 28.71906189 28.97280884 27.87203979 C28.85707195 23.32662455 28.4588506 19.47591987 26.59375 15.24609375 C23.39624299 13.64734024 20.06416009 13.74443051 16.59375 14.24609375 C13.3433654 16.5797032 12.34865515 18.41721614 11.59375 22.24609375 C11.44236775 25.15277687 11.33731343 28.04068011 11.27734375 30.94921875 C11.25656265 31.78700867 11.23578156 32.62479858 11.21437073 33.48797607 C11.1491245 36.15726731 11.09010642 38.82665473 11.03125 41.49609375 C10.98804106 43.30860359 10.94442601 45.1211038 10.90039062 46.93359375 C10.7927064 51.37099671 10.69344793 55.80847543 10.59375 60.24609375 C4.98375 60.24609375 -0.62625 60.24609375 -6.40625 60.24609375 C-7.28824726 55.83610745 -7.4909885 51.97117141 -7.3984375 47.53125 C-7.38092242 46.02539735 -7.36401402 44.51953754 -7.34765625 43.01367188 C-7.31672293 40.65905675 -7.28117547 38.3048051 -7.23486328 35.95043945 C-7.19232922 33.6648313 -7.16903442 31.37964732 -7.1484375 29.09375 C-7.12981659 28.39669449 -7.11119568 27.69963898 -7.0920105 26.98146057 C-7.06781326 22.32934746 -7.9401154 19.1885411 -10.40625 15.24609375 C-13.1861316 13.85615295 -15.3248826 14.06121171 -18.40625 14.24609375 C-21.74890205 15.45316254 -22.35329566 16.16666224 -24.40625 19.24609375 C-24.72420068 21.15371684 -24.72420068 21.15371684 -24.70922852 23.24267578 C-24.72587051 24.04005157 -24.74251251 24.83742737 -24.75965881 25.65896606 C-24.76807297 26.51529633 -24.77648712 27.37162659 -24.78515625 28.25390625 C-24.80215073 29.13513153 -24.8191452 30.01635681 -24.83665466 30.92428589 C-24.88980699 33.7398157 -24.93010227 36.55533035 -24.96875 39.37109375 C-25.01262446 42.193924 -25.05926301 45.01663782 -25.11155701 47.83932495 C-25.14360607 49.59649938 -25.17046715 51.35377716 -25.19178772 53.1111145 C-25.29449952 59.13434327 -25.29449952 59.13434327 -26.40625 60.24609375 C-29.26892567 60.31934543 -32.106969 60.3384758 -34.96875 60.30859375 C-35.77505859 60.30408203 -36.58136719 60.29957031 -37.41210938 60.29492188 C-39.41018756 60.28309893 -41.40822783 60.26516289 -43.40625 60.24609375 C-43.42937821 52.57072748 -43.44716753 44.89536479 -43.45806217 37.21997166 C-43.46328995 33.65631953 -43.47038569 30.09269118 -43.48168945 26.52905273 C-43.49459176 22.43603278 -43.49947906 18.34303795 -43.50390625 14.25 C-43.50906754 12.96460831 -43.51422882 11.67921661 -43.51954651 10.35487366 C-43.51962204 9.17372482 -43.51969757 7.99257599 -43.51977539 6.77563477 C-43.521996 5.72972672 -43.52421661 4.68381866 -43.52650452 3.60621643 C-43.40625 1.24609375 -43.40625 1.24609375 -42.40625 0.24609375 C-39.87575598 0.17295808 -37.37320163 0.15361848 -34.84375 0.18359375 C-34.13283203 0.18810547 -33.42191406 0.19261719 -32.68945312 0.19726562 C-30.92834987 0.20908511 -29.16728964 0.22702112 -27.40625 0.24609375 C-26.74625 1.89609375 -26.08625 3.54609375 -25.40625 5.24609375 C-24.478125 4.44171875 -23.55 3.63734375 -22.59375 2.80859375 C-16.74509685 -2.26023898 -7.18353825 -2.2506865 0 0 Z " fill="#48CBCE" transform="translate(276.40625,78.75390625)"/>
<path d="M0 0 C2.31 0 4.62 0 7 0 C7.495 8.91 7.495 8.91 8 18 C10.66352539 18.00616333 10.66352539 18.00616333 13.38085938 18.01245117 C19.27232581 18.03191003 25.16339172 18.07431516 31.05458832 18.13209057 C34.62371591 18.16626478 38.19241986 18.19145541 41.76171875 18.19555664 C45.21158393 18.19986051 48.66049502 18.22849224 52.11006165 18.27343178 C54.05517466 18.29258883 56.00048067 18.2870697 57.94567871 18.28105164 C65.06724171 18.39756404 70.67259613 18.90587293 76 24 C78.3623613 27.86568213 79.03086431 30.1049349 78.875 34.625 C77.77279772 38.87635166 76.35245848 41.64754152 73.25 44.75 C68.02416125 47.65324375 61.59506271 47.13539065 55.75732422 47.08178711 C54.96454071 47.07872055 54.1717572 47.07565399 53.35494995 47.07249451 C51.64550624 47.06537872 49.93607068 47.05600971 48.22665024 47.04459953 C45.519513 47.02711659 42.81243549 47.0168815 40.10525513 47.00868225 C32.41239788 46.98430419 24.71962178 46.94858557 17.02685547 46.90405273 C12.31148938 46.87725977 7.59616911 46.86022571 2.88074112 46.84918404 C1.08739648 46.84298262 -0.70593925 46.83298778 -2.49924088 46.81910515 C-5.00492429 46.7998703 -7.51036593 46.79299072 -10.01611328 46.78881836 C-10.75390015 46.78005676 -11.49168701 46.77129517 -12.25183105 46.76226807 C-16.46172947 46.77026322 -20.84478652 46.84478652 -24 50 C-24.33340471 52.95804573 -24.33340471 52.95804573 -24 56 C-20.7165634 58.18895773 -19.79277768 58.24705236 -15.98986816 58.23377991 C-14.9551387 58.23508408 -13.92040924 58.23638824 -12.85432434 58.23773193 C-11.71968246 58.22897034 -10.58504059 58.22020874 -9.41601562 58.21118164 C-7.62305305 58.20921028 -7.62305305 58.20921028 -5.79386902 58.2071991 C-2.51494991 58.20181519 0.76379457 58.18761522 4.04266548 58.16985631 C7.47256171 58.15363553 10.90246986 58.14952414 14.33239746 58.14439392 C20.83113112 58.13301102 27.3297956 58.11228334 33.82849073 58.08749622 C45.46852913 58.04317608 57.10859168 58.00999203 68.74869204 57.98725218 C72.16428654 57.98021893 75.57983845 57.97059858 78.9954071 57.95540047 C82.80227638 57.93879518 86.60912364 57.92797946 90.41601562 57.91821289 C91.5506575 57.91147552 92.68529938 57.90473816 93.85432434 57.89779663 C94.8890538 57.89628098 95.92378326 57.89476532 96.98986816 57.89320374 C98.34044186 57.88792459 98.34044186 57.88792459 99.71829987 57.8825388 C102 58 102 58 105 59 C105.04241723 61.33294775 105.04092937 63.66702567 105 66 C103.35357107 67.64642893 101.45029387 67.13303956 99.18136597 67.14044189 C98.13833817 67.14615204 97.09531036 67.15186218 96.02067566 67.15774536 C94.86642593 67.15886322 93.71217621 67.15998108 92.52294922 67.16113281 C91.31485092 67.16609772 90.10675262 67.17106262 88.86204529 67.17617798 C85.5373442 67.18831437 82.21270625 67.19575279 78.88799047 67.20018864 C76.81030472 67.20311708 74.73262452 67.2072216 72.65494156 67.21169281 C66.15319241 67.22537888 59.65145593 67.23503829 53.14969337 67.2388947 C45.64754666 67.24336877 38.14558276 67.26088153 30.64349163 67.2898953 C24.84468015 67.31154141 19.04591996 67.32160065 13.24706852 67.32293582 C9.78431946 67.32398239 6.32174197 67.32985761 2.85903549 67.34775543 C-1.00956298 67.36735999 -4.87793515 67.36293545 -8.74658203 67.35644531 C-9.88868637 67.3656601 -11.03079071 67.37487488 -12.20750427 67.3843689 C-19.44625614 67.34633518 -24.66904495 66.80501478 -30.375 62 C-33.3168646 58.37924357 -33.3428291 54.75998865 -33.27734375 50.28515625 C-32.83767775 46.66255607 -31.41791641 44.67243392 -29 42 C-23.95472848 38.80905202 -19.86336097 38.56700825 -14.08886719 38.59936523 C-13.21338226 38.59238617 -12.33789734 38.5854071 -11.43588257 38.57821655 C-8.5561144 38.55829811 -5.67670578 38.55874024 -2.796875 38.55859375 C-0.79240961 38.54682042 1.21204701 38.53345631 3.2164917 38.51856995 C8.48298478 38.48242497 13.74940009 38.46219035 19.01599121 38.44702148 C27.4599369 38.42216104 35.90371092 38.38268875 44.34749603 38.32512093 C47.30016562 38.30874878 50.25267384 38.30501099 53.2053833 38.30210876 C55.00574019 38.29233769 56.80609451 38.28207528 58.60644531 38.27124023 C59.43139496 38.27379318 60.2563446 38.27634613 61.10629272 38.27897644 C65.52283689 38.41851711 65.52283689 38.41851711 69 36 C69.16681109 32.91652174 69.16681109 32.91652174 69 30 C65.71802463 28.04186237 63.31243052 27.76748203 59.51635742 27.82055664 C57.86895821 27.83530785 57.86895821 27.83530785 56.1882782 27.85035706 C55.00595108 27.87009079 53.82362396 27.88982452 52.60546875 27.91015625 C50.09830926 27.93058153 47.59114772 27.95075599 45.08398438 27.97070312 C41.1339447 28.01416952 37.18404199 28.06254719 33.23413086 28.11645508 C29.42041475 28.16482044 25.60688075 28.19464013 21.79296875 28.22265625 C20.02858711 28.2552932 20.02858711 28.2552932 18.2285614 28.28858948 C12.04500726 28.32588976 7.39596988 28.15453827 2 25 C-1.56199031 20.17104159 -1.39762732 15.44035229 -1.25 9.6875 C-1.24484375 8.86443359 -1.2396875 8.04136719 -1.234375 7.19335938 C-1.15472274 1.15472274 -1.15472274 1.15472274 0 0 Z " fill="#48CACE" transform="translate(61,117)"/>
<path d="M0 0 C0.9273999 0.00684814 1.8547998 0.01369629 2.81030273 0.02075195 C10.79061511 0.20843304 17.17767088 1.16253734 23.125 6.8125 C26.74299637 13.14399364 26.95476448 18.96896495 27.0390625 26.0859375 C27.05842865 27.09846588 27.0777948 28.11099426 27.0977478 29.15420532 C27.15730723 32.37355242 27.20383448 35.59293574 27.25 38.8125 C27.28820151 41.00131728 27.3272545 43.19011988 27.3671875 45.37890625 C27.46298942 50.73165093 27.54710775 56.08446596 27.625 61.4375 C22.015 61.4375 16.405 61.4375 10.625 61.4375 C10.13 59.4575 10.13 59.4575 9.625 57.4375 C8.614375 58.05625 7.60375 58.675 6.5625 59.3125 C-0.55463091 63.33460604 -7.77530089 64.60486398 -15.7734375 62.9375 C-22.10475018 61.086485 -25.53072881 58.23570457 -29.1875 52.6875 C-31.1463128 47.32653866 -31.11464739 42.65644218 -29.3125 37.25 C-24.57542578 30.37360193 -19.78447546 27.77946693 -11.65234375 26.015625 C-7.14920275 25.22126878 -2.63166858 24.59100325 1.91015625 24.0625 C4.82387987 23.39171471 5.94654515 22.89062632 7.625 20.4375 C7.54957659 17.31756394 7.54957659 17.31756394 6.625 14.4375 C4.18545342 13.21772671 2.47194151 13.23596187 -0.25 13.1875 C-1.11367187 13.16171875 -1.97734375 13.1359375 -2.8671875 13.109375 C-5.94455442 13.51202114 -7.18267133 14.25466193 -9.375 16.4375 C-10.365 18.9125 -10.365 18.9125 -11.375 21.4375 C-16.655 21.4375 -21.935 21.4375 -27.375 21.4375 C-28.47187023 15.95314884 -28.17621277 14.9089385 -25.66796875 10.36328125 C-19.60948453 1.33961745 -10.01211044 -0.11271853 0 0 Z M-1.875 35.75 C-3.56109375 36.11544922 -3.56109375 36.11544922 -5.28125 36.48828125 C-8.32008447 37.42065092 -10.12897359 38.2076709 -12.375 40.4375 C-13.04166667 43.9375 -13.04166667 43.9375 -12.375 47.4375 C-10.25346774 49.53492394 -8.9009334 50.3591157 -5.9375 50.80078125 C-4.6690625 50.77564453 -4.6690625 50.77564453 -3.375 50.75 C-2.1065625 50.74419922 -2.1065625 50.74419922 -0.8125 50.73828125 C1.81027124 50.414638 3.42012615 49.88504762 5.625 48.4375 C8.30654755 43.55325268 8.9709973 40.08878923 8.625 34.4375 C4.83696526 34.4375 1.80541967 34.92697037 -1.875 35.75 Z " fill="#48CBCE" transform="translate(195.375,77.5625)"/>
<path d="M0 0 C7.06939908 5.05759871 10.58734235 11.2601815 12.45703125 19.7578125 C13.50912926 29.90304333 12.81994498 38.54821993 6.87890625 47.00390625 C1.40876049 53.71838696 -4.9351992 57.49699996 -13.54296875 58.7578125 C-23.17015784 59.65887946 -32.12179566 57.82179581 -39.72265625 51.62109375 C-46.67268084 44.50701279 -49.47797128 36.15275672 -49.91796875 26.4453125 C-49.70662316 17.46934095 -46.67582604 9.97303078 -40.4765625 3.48046875 C-29.26537029 -6.50768431 -12.90296332 -7.58997842 0 0 Z M-27.54296875 11.7578125 C-32.1547732 17.24600347 -32.07759145 23.58057687 -31.87109375 30.46875 C-31.37702492 35.42120184 -30.18409239 38.70640795 -27.04296875 42.6328125 C-23.66605214 45.16549996 -19.88196903 45.15164068 -15.83203125 45.10546875 C-11.84122033 44.49935583 -10.24245171 42.72065965 -7.54296875 39.7578125 C-5.33480409 35.53810058 -5.20879886 31.48800731 -5.23046875 26.8203125 C-5.21435547 26.13001953 -5.19824219 25.43972656 -5.18164062 24.72851562 C-5.17637832 19.17678273 -6.44433901 15.09859183 -10.16796875 10.9453125 C-15.99906749 8.02976313 -22.24836759 7.69451394 -27.54296875 11.7578125 Z " fill="#48CBCE" transform="translate(484.54296875,82.2421875)"/>
<path d="M0 0 C4.94783669 3.02367798 7.45263298 6.59667161 8.97357178 12.19778442 C9.76769268 16.38119691 9.61650465 20.59681303 9.5703125 24.83984375 C9.5674826 25.82876114 9.56465271 26.81767853 9.56173706 27.83656311 C9.55060142 30.97450195 9.52550903 34.11214839 9.5 37.25 C9.48996165 39.38606357 9.4808373 41.52213164 9.47265625 43.65820312 C9.45068375 48.8764136 9.41619964 54.09440734 9.375 59.3125 C3.765 59.3125 -1.845 59.3125 -7.625 59.3125 C-7.66238281 56.65058594 -7.69976563 53.98867187 -7.73828125 51.24609375 C-7.78457066 48.65120504 -7.83577724 46.05645634 -7.88745117 43.46166992 C-7.92058413 41.66651 -7.94865187 39.87124883 -7.97143555 38.07592773 C-8.00519664 35.48637988 -8.05752125 32.89775029 -8.11328125 30.30859375 C-8.11967117 29.51351913 -8.1260611 28.71844452 -8.13264465 27.89927673 C-8.26838608 22.68568036 -9.16789235 18.94014688 -11.625 14.3125 C-15.39451172 12.42774414 -20.0021309 12.88542918 -24 13.9375 C-26.80726713 16.31287988 -27.45577995 19.68935705 -27.82937622 23.27285767 C-27.93398208 25.50221531 -27.97968411 27.72536146 -28.00390625 29.95703125 C-28.02090073 30.76742355 -28.0378952 31.57781586 -28.05540466 32.4127655 C-28.1082456 34.98343268 -28.14873281 37.55408513 -28.1875 40.125 C-28.23141679 42.71369084 -28.27802489 45.30225709 -28.33030701 47.89079285 C-28.36229714 49.49772211 -28.38917696 51.10476258 -28.41053772 52.71186829 C-28.51318653 58.20068653 -28.51318653 58.20068653 -29.625 59.3125 C-32.48767567 59.38575168 -35.325719 59.40488205 -38.1875 59.375 C-38.99380859 59.37048828 -39.80011719 59.36597656 -40.63085938 59.36132812 C-42.62893756 59.34950518 -44.62697783 59.33156914 -46.625 59.3125 C-46.64812821 51.63713373 -46.66591753 43.96177104 -46.67681217 36.28637791 C-46.68203995 32.72272578 -46.68913569 29.15909743 -46.70043945 25.59545898 C-46.71334176 21.50243903 -46.71822906 17.4094442 -46.72265625 13.31640625 C-46.72781754 12.03101456 -46.73297882 10.74562286 -46.73829651 9.42127991 C-46.73837204 8.24013107 -46.73844757 7.05898224 -46.73852539 5.84204102 C-46.740746 4.79613297 -46.74296661 3.75022491 -46.74525452 2.67262268 C-46.625 0.3125 -46.625 0.3125 -45.625 -0.6875 C-43.09450598 -0.76063567 -40.59195163 -0.77997527 -38.0625 -0.75 C-37.35158203 -0.74548828 -36.64066406 -0.74097656 -35.90820312 -0.73632812 C-34.14709987 -0.72450864 -32.38603964 -0.70657263 -30.625 -0.6875 C-29.965 0.9625 -29.305 2.6125 -28.625 4.3125 C-27.903125 3.69375 -27.18125 3.075 -26.4375 2.4375 C-19.14942739 -3.06904375 -8.33200422 -3.87571571 0 0 Z " fill="#47CCCE" transform="translate(552.625,79.6875)"/>
<path d="M0 0 C11.3540625 -0.0309375 11.3540625 -0.0309375 22.9375 -0.0625 C25.32991943 -0.071604 27.72233887 -0.08070801 30.18725586 -0.09008789 C32.07145125 -0.09300692 33.95564727 -0.09555551 35.83984375 -0.09765625 C37.32200378 -0.1053302 37.32200378 -0.1053302 38.83410645 -0.11315918 C39.76791138 -0.11328003 40.70171631 -0.11340088 41.66381836 -0.11352539 C42.47878281 -0.115746 43.29374725 -0.11796661 44.13340759 -0.12025452 C46 0 46 0 47 1 C47.09804851 2.4067522 47.12798186 3.81835136 47.12939453 5.22851562 C47.13254669 6.12614624 47.13569885 7.02377686 47.13894653 7.9486084 C47.1369223 8.92463013 47.13489807 9.90065186 47.1328125 10.90625 C47.13376923 11.9012854 47.13472595 12.8963208 47.13571167 13.92150879 C47.1363936 16.02986718 47.13453844 18.13822765 47.13037109 20.24658203 C47.12502303 23.48605027 47.13031567 26.72537985 47.13671875 29.96484375 C47.13605797 32.00781281 47.13477681 34.05078178 47.1328125 36.09375 C47.13483673 37.06977173 47.13686096 38.04579346 47.13894653 39.0513916 C47.13421829 40.39783752 47.13421829 40.39783752 47.12939453 41.77148438 C47.12859894 42.56566772 47.12780334 43.35985107 47.12698364 44.17810059 C47 46 47 46 46 47 C44.55710213 47.09295815 43.10970215 47.11746513 41.66381836 47.11352539 C40.73001343 47.11340454 39.7962085 47.11328369 38.83410645 47.11315918 C37.84599976 47.10804321 36.85789307 47.10292725 35.83984375 47.09765625 C34.93657349 47.09664917 34.03330322 47.09564209 33.10266113 47.09460449 C29.71426126 47.08935512 26.32587941 47.07539398 22.9375 47.0625 C15.368125 47.041875 7.79875 47.02125 0 47 C0 31.49 0 15.98 0 0 Z M15 14 C13.55611429 15.21428988 13.55611429 15.21428988 13.90234375 18.81640625 C13.90901911 20.39846682 13.92098125 21.98051159 13.9375 23.5625 C13.94201172 24.36880859 13.94652344 25.17511719 13.95117188 26.00585938 C13.96299482 28.00393756 13.98093086 30.00197783 14 32 C15.65 32 17.3 32 19 32 C19 26.39 19 20.78 19 15 C17.68 14.67 16.36 14.34 15 14 Z M28 14 C26.55611429 15.21428988 26.55611429 15.21428988 26.90234375 18.81640625 C26.90901911 20.39846682 26.92098125 21.98051159 26.9375 23.5625 C26.94201172 24.36880859 26.94652344 25.17511719 26.95117188 26.00585938 C26.96299482 28.00393756 26.98093086 30.00197783 27 32 C28.65 32 30.3 32 32 32 C32 26.06 32 20.12 32 14 C30.68 14 29.36 14 28 14 Z " fill="#49CBCE" transform="translate(41,16)"/>
<path d="M0 0 C1.37376679 0.00398964 2.74753489 0.01873698 4.12109375 0.04296875 C4.81912109 0.04361328 5.51714844 0.04425781 6.23632812 0.04492188 C11.41828217 0.09015717 11.41828217 0.09015717 12.55859375 1.23046875 C12.63184543 4.09314442 12.6509758 6.93118775 12.62109375 9.79296875 C12.61658203 10.59927734 12.61207031 11.40558594 12.60742188 12.23632812 C12.59559893 14.23440631 12.57766289 16.23244658 12.55859375 18.23046875 C13.26886719 18.21886719 13.97914063 18.20726563 14.7109375 18.1953125 C15.63003906 18.18628906 16.54914062 18.17726563 17.49609375 18.16796875 C18.87087891 18.15056641 18.87087891 18.15056641 20.2734375 18.1328125 C22.55859375 18.23046875 22.55859375 18.23046875 23.55859375 19.23046875 C23.70169662 22.89962645 23.60081037 26.55762316 23.55859375 30.23046875 C19.92859375 30.56046875 16.29859375 30.89046875 12.55859375 31.23046875 C12.88859375 41.79046875 13.21859375 52.35046875 13.55859375 63.23046875 C16.52859375 63.56046875 19.49859375 63.89046875 22.55859375 64.23046875 C23.55859375 65.23046875 23.55859375 65.23046875 23.65625 68.171875 C23.64464844 69.36683594 23.63304687 70.56179687 23.62109375 71.79296875 C23.61207031 72.99050781 23.60304688 74.18804687 23.59375 75.421875 C23.58214844 76.34871094 23.57054687 77.27554688 23.55859375 78.23046875 C16.25334651 80.32486303 8.68161065 79.64505075 1.55859375 77.23046875 C-2.30207951 75.04834908 -3.24461362 73.86878001 -4.56201172 69.59570312 C-5.53462011 65.36026252 -5.70035246 61.34179111 -5.63671875 57.01171875 C-5.63388885 56.2683728 -5.63105896 55.52502686 -5.62814331 54.75915527 C-5.61706782 52.41608658 -5.59198853 50.07341928 -5.56640625 47.73046875 C-5.55636006 46.12891182 -5.5472371 44.52734882 -5.5390625 42.92578125 C-5.51717015 39.02719225 -5.48273011 35.12889823 -5.44140625 31.23046875 C-7.11444824 31.26793213 -7.11444824 31.26793213 -8.82128906 31.30615234 C-12.44140625 31.23046875 -12.44140625 31.23046875 -14.36328125 30.01953125 C-15.73956231 27.73570253 -15.77779089 26.25747734 -15.69140625 23.60546875 C-15.6759375 22.80882813 -15.66046875 22.0121875 -15.64453125 21.19140625 C-15.44140625 19.23046875 -15.44140625 19.23046875 -14.44140625 18.23046875 C-12.92212587 18.15866911 -11.39973143 18.14654868 -9.87890625 18.16796875 C-9.05261719 18.17699219 -8.22632813 18.18601562 -7.375 18.1953125 C-6.41787109 18.21271484 -6.41787109 18.21271484 -5.44140625 18.23046875 C-5.46460938 17.09867188 -5.4878125 15.966875 -5.51171875 14.80078125 C-5.53047526 13.319017 -5.54867559 11.83724563 -5.56640625 10.35546875 C-5.58316406 9.60910156 -5.59992187 8.86273438 -5.6171875 8.09375 C-5.63480215 6.13852414 -5.54460814 4.18304854 -5.44140625 2.23046875 C-3.44140625 0.23046875 -3.44140625 0.23046875 0 0 Z " fill="#48CBCD" transform="translate(611.44140625,60.76953125)"/>
<path d="M0 0 C5.28 0 10.56 0 16 0 C17.73067699 1.73067699 17.12756529 4.06488804 17.12939453 6.421875 C17.13254669 7.57977539 17.13569885 8.73767578 17.13894653 9.93066406 C17.1369223 11.19104492 17.13489807 12.45142578 17.1328125 13.75 C17.13424759 15.67537598 17.13424759 15.67537598 17.13571167 17.63964844 C17.13718831 20.36003824 17.13503519 23.08039525 17.13037109 25.80078125 C17.12467381 29.29484669 17.12795299 32.78883533 17.13394356 36.28289795 C17.13841754 39.60527153 17.13528885 42.92762423 17.1328125 46.25 C17.13483673 47.51038086 17.13686096 48.77076172 17.13894653 50.06933594 C17.13579437 51.22723633 17.13264221 52.38513672 17.12939453 53.578125 C17.12859894 54.60325195 17.12780334 55.62837891 17.12698364 56.68457031 C17 59 17 59 16 60 C10.72 60 5.44 60 0 60 C0 40.2 0 20.4 0 0 Z " fill="#46CCCE" transform="translate(574,79)"/>
<path d="M0 0 C1.1653125 -0.00128906 2.330625 -0.00257812 3.53125 -0.00390625 C4.7584375 -0.00003906 5.985625 0.00382812 7.25 0.0078125 C9.09078125 0.00201172 9.09078125 0.00201172 10.96875 -0.00390625 C12.71671875 -0.00197266 12.71671875 -0.00197266 14.5 0 C15.57765625 0.00112793 16.6553125 0.00225586 17.765625 0.00341797 C20.25 0.1328125 20.25 0.1328125 21.25 1.1328125 C21.37667764 4.12299411 21.43520838 7.07975358 21.4375 10.0703125 C21.44974609 10.90755859 21.46199219 11.74480469 21.47460938 12.60742188 C21.47750977 13.80915039 21.47750977 13.80915039 21.48046875 15.03515625 C21.48457764 15.77241943 21.48868652 16.50968262 21.49291992 17.26928711 C21.25 19.1328125 21.25 19.1328125 19.25 21.1328125 C11.49666804 22.44596887 2.98286432 22.75262925 -4.75 21.1328125 C-6.75 19.1328125 -6.75 19.1328125 -6.99291992 17.26928711 C-6.98881104 16.53202393 -6.98470215 15.79476074 -6.98046875 15.03515625 C-6.97853516 14.23400391 -6.97660156 13.43285156 -6.97460938 12.60742188 C-6.96236328 11.77017578 -6.95011719 10.93292969 -6.9375 10.0703125 C-6.93685547 9.22919922 -6.93621094 8.38808594 -6.93554688 7.52148438 C-6.88105168 0.00720206 -6.88105168 0.00720206 0 0 Z " fill="#4ACACD" transform="translate(56.75,93.8671875)"/>
<path d="M0 0 C2.64590014 -0.02684679 5.29153096 -0.04676357 7.9375 -0.0625 C8.69224609 -0.07087891 9.44699219 -0.07925781 10.22460938 -0.08789062 C12.14994313 -0.09652441 14.07535581 -0.05224333 16 0 C17 1 17 1 17.1328125 3.90625 C17.13023437 5.0921875 17.12765625 6.278125 17.125 7.5 C17.12886719 9.27890625 17.12886719 9.27890625 17.1328125 11.09375 C17 14 17 14 16 15 C13.30345146 15.07319621 10.63308542 15.09242537 7.9375 15.0625 C6.79958008 15.05573242 6.79958008 15.05573242 5.63867188 15.04882812 C3.75908129 15.0370068 1.87953101 15.01907078 0 15 C-0.88420873 11.36491967 -1.0075079 8.39589917 -0.5625 4.6875 C-0.46066406 3.80449219 -0.35882812 2.92148437 -0.25390625 2.01171875 C-0.17011719 1.34785156 -0.08632813 0.68398438 0 0 Z " fill="#46CACD" transform="translate(574,57)"/>
<path d="M0 0 C0.70253906 0.00386719 1.40507813 0.00773437 2.12890625 0.01171875 C2.83144531 0.00785156 3.53398438 0.00398438 4.2578125 0 C9.50229247 0.01010497 9.50229247 0.01010497 10.62890625 1.13671875 C10.66954457 2.8028899 10.67162725 4.4705997 10.62890625 6.13671875 C9.96890625 5.14671875 9.30890625 4.15671875 8.62890625 3.13671875 C1.69890625 2.64171875 1.69890625 2.64171875 -5.37109375 2.13671875 C-5.37109375 20.61671875 -5.37109375 39.09671875 -5.37109375 58.13671875 C-0.09109375 58.13671875 5.18890625 58.13671875 10.62890625 58.13671875 C10.59410156 55.57019531 10.55929687 53.00367188 10.5234375 50.359375 C10.49997725 47.84726064 10.48179762 45.33515893 10.46411133 42.82299805 C10.44911356 41.08986869 10.42870853 39.35677671 10.40258789 37.6237793 C10.36580422 35.1188835 10.34908974 32.61449355 10.3359375 30.109375 C10.32045364 29.34649673 10.30496979 28.58361847 10.28901672 27.79762268 C10.2872557 22.04584597 11.60396641 17.52020933 13.62890625 12.13671875 C22.04390625 11.64171875 22.04390625 11.64171875 30.62890625 11.13671875 C31.54731392 14.81034941 32.12438406 18.38883963 32.62890625 22.13671875 C32.38140625 21.55921875 32.13390625 20.98171875 31.87890625 20.38671875 C30.35172761 17.6377972 29.18003833 16.01650028 26.62890625 14.13671875 C23.03354526 13.53009406 19.76373725 13.83807901 16.25390625 14.76171875 C13.44663912 17.13709863 12.7981263 20.5135758 12.42453003 24.09707642 C12.31992417 26.32643406 12.27422214 28.54958021 12.25 30.78125 C12.23300552 31.5916423 12.21601105 32.40203461 12.19850159 33.23698425 C12.14566065 35.80765143 12.10517344 38.37830388 12.06640625 40.94921875 C12.02248946 43.53790959 11.97588136 46.12647584 11.92359924 48.7150116 C11.89160911 50.32194086 11.86472929 51.92898133 11.84336853 53.53608704 C11.74071972 59.02490528 11.74071972 59.02490528 10.62890625 60.13671875 C7.76623058 60.20997043 4.92818725 60.2291008 2.06640625 60.19921875 C1.26009766 60.19470703 0.45378906 60.19019531 -0.37695312 60.18554688 C-2.37503131 60.17372393 -4.37307158 60.15578789 -6.37109375 60.13671875 C-6.39422196 52.46135248 -6.41201128 44.78598979 -6.42290592 37.11059666 C-6.4281337 33.54694453 -6.43522944 29.98331618 -6.4465332 26.41967773 C-6.45943551 22.32665778 -6.46432281 18.23366295 -6.46875 14.140625 C-6.47391129 12.85523331 -6.47907257 11.56984161 -6.48439026 10.24549866 C-6.48446579 9.06434982 -6.48454132 7.88320099 -6.48461914 6.66625977 C-6.48683975 5.62035172 -6.48906036 4.57444366 -6.49134827 3.49684143 C-6.26446979 -0.95588979 -3.89912083 0.00751276 0 0 Z " fill="#5EC4C3" transform="translate(512.37109375,78.86328125)"/>
<path d="M0 0 C0.66 0 1.32 0 2 0 C2.103125 0.639375 2.20625 1.27875 2.3125 1.9375 C2.539375 2.618125 2.76625 3.29875 3 4 C6.30406635 5.10135545 8.73643693 5.12036063 12.21557617 5.11352539 C13.4966777 5.11344986 14.77777924 5.11337433 16.09770203 5.11329651 C17.49612466 5.10818987 18.8945469 5.10297387 20.29296875 5.09765625 C21.72357636 5.09579089 23.15418461 5.09436754 24.58479309 5.09336853 C28.34786751 5.08955267 32.11090325 5.07973032 35.8739624 5.06866455 C39.71479774 5.05843043 43.55563933 5.05386662 47.39648438 5.04882812 C54.9310072 5.03810722 62.46549818 5.02104196 70 5 C70.495 6.485 70.495 6.485 71 8 C71.66 7.67 72.32 7.34 73 7 C73 5.68 73 4.36 73 3 C71.68 2.67 70.36 2.34 69 2 C69.33 1.34 69.66 0.68 70 0 C76.7434555 4.10471204 76.7434555 4.10471204 78 8 C78 8.99 78 9.98 78 11 C76.35 10.67 74.7 10.34 73 10 C72.814375 11.11375 72.814375 11.11375 72.625 12.25 C72.04513299 14.80141485 71.26291261 16.7267573 70 19 C68.515 18.505 68.515 18.505 67 18 C67.66 17.34 68.32 16.68 69 16 C69.16681109 12.91652174 69.16681109 12.91652174 69 10 C65.71802463 8.04186237 63.31243052 7.76748203 59.51635742 7.82055664 C57.86895821 7.83530785 57.86895821 7.83530785 56.1882782 7.85035706 C55.00595108 7.87009079 53.82362396 7.88982452 52.60546875 7.91015625 C50.09830926 7.93058153 47.59114772 7.95075599 45.08398438 7.97070312 C41.1339447 8.01416952 37.18404199 8.06254719 33.23413086 8.11645508 C29.42041475 8.16482044 25.60688075 8.19464013 21.79296875 8.22265625 C20.61671432 8.24441422 19.4404599 8.26617218 18.2285614 8.28858948 C12.06180416 8.32578843 7.36921509 8.18281846 2 5 C0.5625 2.3125 0.5625 2.3125 0 0 Z " fill="#5CC6C8" transform="translate(61,137)"/>
<path d="M0 0 C0.70253906 0.00386719 1.40507812 0.00773437 2.12890625 0.01171875 C2.83144531 0.00785156 3.53398437 0.00398438 4.2578125 0 C9.50229247 0.01010497 9.50229247 0.01010497 10.62890625 1.13671875 C10.66954457 2.8028899 10.67162725 4.4705997 10.62890625 6.13671875 C10.29890625 4.81671875 9.96890625 3.49671875 9.62890625 2.13671875 C5.00890625 2.13671875 0.38890625 2.13671875 -4.37109375 2.13671875 C-4.37109375 20.61671875 -4.37109375 39.09671875 -4.37109375 58.13671875 C0.57890625 58.13671875 5.52890625 58.13671875 10.62890625 58.13671875 C10.62890625 58.79671875 10.62890625 59.45671875 10.62890625 60.13671875 C7.98300611 60.16356554 5.33737529 60.18348232 2.69140625 60.19921875 C1.93666016 60.20759766 1.18191406 60.21597656 0.40429688 60.22460938 C-1.52103688 60.23324316 -3.44644956 60.18896208 -5.37109375 60.13671875 C-7.10177074 58.40604176 -6.49865904 56.07183071 -6.50048828 53.71484375 C-6.50364044 52.55694336 -6.5067926 51.39904297 -6.51004028 50.20605469 C-6.50801605 48.94567383 -6.50599182 47.68529297 -6.50390625 46.38671875 C-6.50534134 44.46134277 -6.50534134 44.46134277 -6.50680542 42.49707031 C-6.50828206 39.77668051 -6.50612894 37.0563235 -6.50146484 34.3359375 C-6.49576756 30.84187206 -6.49904674 27.34788342 -6.50503731 23.8538208 C-6.50951129 20.53144722 -6.5063826 17.20909452 -6.50390625 13.88671875 C-6.50593048 12.62633789 -6.50795471 11.36595703 -6.51004028 10.06738281 C-6.50688812 8.90948242 -6.50373596 7.75158203 -6.50048828 6.55859375 C-6.49929489 5.02090332 -6.49929489 5.02090332 -6.49807739 3.45214844 C-6.25615822 -0.95902475 -3.85389144 0.00742561 0 0 Z " fill="#5BC0C2" transform="translate(341.37109375,78.86328125)"/>
<path d="M0 0 C1.39456452 0.00667256 2.78911118 0.01863093 4.18359375 0.03515625 C4.89451172 0.03966797 5.60542969 0.04417969 6.33789062 0.04882812 C8.09899388 0.06064761 9.86005411 0.07858362 11.62109375 0.09765625 C11.62109375 0.42765625 11.62109375 0.75765625 11.62109375 1.09765625 C7.00109375 1.42765625 2.38109375 1.75765625 -2.37890625 2.09765625 C-2.70890625 20.90765625 -3.03890625 39.71765625 -3.37890625 59.09765625 C-0.40890625 58.60265625 -0.40890625 58.60265625 2.62109375 58.09765625 C5.59109375 58.09765625 8.56109375 58.09765625 11.62109375 58.09765625 C11.62109375 46.21765625 11.62109375 34.33765625 11.62109375 22.09765625 C12.28109375 21.76765625 12.94109375 21.43765625 13.62109375 21.09765625 C13.64574224 26.49112613 13.66392906 31.8845635 13.67602539 37.27807617 C13.68106606 39.114345 13.68789852 40.95060979 13.6965332 42.78686523 C13.70861047 45.42042026 13.71432456 48.05392241 13.71875 50.6875 C13.72391129 51.51354233 13.72907257 52.33958466 13.73439026 53.19065857 C13.7345858 55.16001993 13.68313527 57.12927239 13.62109375 59.09765625 C12.62109375 60.09765625 12.62109375 60.09765625 8.8046875 60.1953125 C7.22262693 60.18863714 5.64058216 60.176675 4.05859375 60.16015625 C3.25228516 60.15564453 2.44597656 60.15113281 1.61523438 60.14648438 C-0.38284381 60.13466143 -2.38088408 60.11672539 -4.37890625 60.09765625 C-4.40203446 52.42228998 -4.41982378 44.74692729 -4.43071842 37.07153416 C-4.4359462 33.50788203 -4.44304194 29.94425368 -4.4543457 26.38061523 C-4.46724801 22.28759528 -4.47213531 18.19460045 -4.4765625 14.1015625 C-4.48172379 12.81617081 -4.48688507 11.53077911 -4.49220276 10.20643616 C-4.49227829 9.02528732 -4.49235382 7.84413849 -4.49243164 6.62719727 C-4.49465225 5.58128922 -4.49687286 4.53538116 -4.49916077 3.45777893 C-4.30855239 -0.28311306 -3.86946675 0.1118343 0 0 Z " fill="#65C3C3" transform="translate(237.37890625,78.90234375)"/>
<path d="M0 0 C2.64590014 -0.02684679 5.29153096 -0.04676357 7.9375 -0.0625 C8.69224609 -0.07087891 9.44699219 -0.07925781 10.22460938 -0.08789062 C12.14994313 -0.09652441 14.07535581 -0.05224333 16 0 C17.73067699 1.73067699 17.12756529 4.06488804 17.12939453 6.421875 C17.13254669 7.57977539 17.13569885 8.73767578 17.13894653 9.93066406 C17.1369223 11.19104492 17.13489807 12.45142578 17.1328125 13.75 C17.13424759 15.67537598 17.13424759 15.67537598 17.13571167 17.63964844 C17.13718831 20.36003824 17.13503519 23.08039525 17.13037109 25.80078125 C17.12467381 29.29484669 17.12795299 32.78883533 17.13394356 36.28289795 C17.13841754 39.60527153 17.13528885 42.92762423 17.1328125 46.25 C17.13483673 47.51038086 17.13686096 48.77076172 17.13894653 50.06933594 C17.13579437 51.22723633 17.13264221 52.38513672 17.12939453 53.578125 C17.12859894 54.60325195 17.12780334 55.62837891 17.12698364 56.68457031 C17 59 17 59 16 60 C13.30345146 60.07319621 10.63308542 60.09242537 7.9375 60.0625 C6.79958008 60.05573242 6.79958008 60.05573242 5.63867188 60.04882812 C3.75908129 60.0370068 1.87953101 60.01907078 0 60 C0 59.67 0 59.34 0 59 C4.62 58.67 9.24 58.34 14 58 C14.33 39.52 14.66 21.04 15 2 C10.38 2 5.76 2 1 2 C0.67 2.99 0.34 3.98 0 5 C0 3.35 0 1.7 0 0 Z " fill="#61C0C2" transform="translate(574,79)"/>
<path d="M0 0 C1 1 1 1 1.1328125 4.0546875 C1.13023438 5.31539063 1.12765625 6.57609375 1.125 7.875 C1.12757812 9.13054687 1.13015625 10.38609375 1.1328125 11.6796875 C1 15 1 15 0 18 C-5.75 18.125 -5.75 18.125 -8 17 C-8 11.39 -8 5.78 -8 0 C-4.3147485 -0.92131287 -3.34188735 -1.15237495 0 0 Z " fill="#58C3C6" transform="translate(61,75)"/>
<path d="M0 0 C1.59412284 3.18824568 1.10174735 6.62896662 1.0625 10.125 C1.05798828 10.87910156 1.05347656 11.63320312 1.04882812 12.41015625 C1.03703499 14.27347127 1.01909942 16.13674555 1 18 C-5.15234375 18.09765625 -5.15234375 18.09765625 -7 18 C-8 17 -8 17 -8.09765625 13.40234375 C-8.0909822 11.91403133 -8.07902183 10.42573568 -8.0625 8.9375 C-8.05798828 8.17888672 -8.05347656 7.42027344 -8.04882812 6.63867188 C-8.0370068 4.75908129 -8.01907078 2.87953101 -8 1 C-5.10765685 0.17361624 -3.11257569 0 0 0 Z " fill="#53C3C8" transform="translate(74,74)"/>
<path d="M0 0 C2.31 0 4.62 0 7 0 C7.33 5.94 7.66 11.88 8 18 C37.205 18.495 37.205 18.495 67 19 C67 19.33 67 19.66 67 20 C59.35940505 20.17700544 51.71863807 20.34295815 44.07750225 20.49477577 C40.52946885 20.56561774 36.98160106 20.64027487 33.43383789 20.72363281 C29.35581382 20.81928284 25.27761518 20.89837051 21.19921875 20.9765625 C19.92414963 21.00875885 18.64908051 21.0409552 17.33537292 21.0741272 C16.15437515 21.09429901 14.97337738 21.11447083 13.7565918 21.13525391 C12.71512497 21.15746002 11.67365814 21.17966614 10.60063171 21.20254517 C8 21 8 21 5 19 C3.5686079 13.79493783 3.90471585 8.35708677 4 3 C3.34 3 2.68 3 2 3 C1.34 8.28 0.68 13.56 0 19 C-0.33 19 -0.66 19 -1 19 C-1.02683987 16.02077407 -1.04676037 13.04178705 -1.0625 10.0625 C-1.07087891 9.21236328 -1.07925781 8.36222656 -1.08789062 7.48632812 C-1.09111328 6.67744141 -1.09433594 5.86855469 -1.09765625 5.03515625 C-1.10289307 4.2862915 -1.10812988 3.53742676 -1.11352539 2.76586914 C-1 1 -1 1 0 0 Z " fill="#61C2C3" transform="translate(61,117)"/>
<path d="M0 0 C1.04285156 0.14566406 2.08570313 0.29132813 3.16015625 0.44140625 C5.9375 1.4375 5.9375 1.4375 7.74609375 3.65234375 C10.04531008 9.02723308 10.07824792 14.47412523 10.03515625 20.2421875 C10.0337413 20.9661673 10.03232635 21.69014709 10.03086853 22.43606567 C10.02531075 24.72825407 10.01276633 27.02034157 10 29.3125 C9.99497953 30.87499858 9.99041759 32.43749871 9.98632812 34 C9.97620984 37.8125693 9.95662664 41.6249229 9.9375 45.4375 C14.8875 45.7675 19.8375 46.0975 24.9375 46.4375 C25.2675 45.4475 25.5975 44.4575 25.9375 43.4375 C25.6075 45.0875 25.2775 46.7375 24.9375 48.4375 C19.3275 48.4375 13.7175 48.4375 7.9375 48.4375 C7.92291748 47.25196533 7.90833496 46.06643066 7.89331055 44.8449707 C7.83524062 40.43711523 7.75800816 36.02976596 7.67504883 31.62231445 C7.64184038 29.71647369 7.61379575 27.81053554 7.59106445 25.90454102 C7.55744332 23.16119985 7.50512405 20.41874778 7.44921875 17.67578125 C7.44282883 16.82663651 7.4364389 15.97749176 7.42985535 15.10261536 C7.31409183 10.42127546 6.98356015 7.23328775 3.9375 3.4375 C1.08425563 2.01087781 -0.89704549 2.12716132 -4.0625 2.4375 C-7.58066683 4.51641677 -8.83690787 5.87889093 -10.375 9.6875 C-10.601875 10.595 -10.82875 11.5025 -11.0625 12.4375 C-12.25 10.875 -12.25 10.875 -13.0625 8.4375 C-11.1268811 2.20050578 -11.1268811 2.20050578 -8.32421875 0.19140625 C-5.30315728 -0.81561424 -3.13525096 -0.49340381 0 0 Z " fill="#5DC5C8" transform="translate(364.0625,90.5625)"/>
<path d="M0 0 C3.16586606 2.59025405 3.97831867 5.0778879 5 9 C5.32377785 12.54771092 5.37188494 16.08754058 5.4140625 19.6484375 C5.43342865 20.66096588 5.4527948 21.67349426 5.4727478 22.71670532 C5.53230723 25.93605242 5.57883448 29.15543574 5.625 32.375 C5.66320151 34.56381728 5.7022545 36.75261988 5.7421875 38.94140625 C5.83798942 44.29415093 5.92210775 49.64696596 6 55 C0.39 55 -5.22 55 -11 55 C-11.33 53.68 -11.66 52.36 -12 51 C-11.34 51 -10.68 51 -10 51 C-10 51.66 -10 52.32 -10 53 C-6.37 53 -2.74 53 1 53 C1 50.36 1 47.72 1 45 C1.99 44.505 1.99 44.505 3 44 C3.0248244 39.4101602 3.04291873 34.82035999 3.05493164 30.23046875 C3.05994272 28.67089151 3.06675337 27.11131892 3.07543945 25.55175781 C3.08764686 23.30272264 3.09326068 21.0537499 3.09765625 18.8046875 C3.10281754 18.1138205 3.10797882 17.42295349 3.11329651 16.71115112 C3.11375529 12.70084945 2.7735266 8.93454705 2 5 C1.01 4.67 0.02 4.34 -1 4 C-0.67 2.68 -0.34 1.36 0 0 Z " fill="#56C4CA" transform="translate(217,84)"/>
<path d="M0 0 C0.70253906 0.00386719 1.40507813 0.00773437 2.12890625 0.01171875 C2.83144531 0.00785156 3.53398438 0.00398438 4.2578125 0 C9.50229247 0.01010497 9.50229247 0.01010497 10.62890625 1.13671875 C10.66954457 2.8028899 10.67162725 4.4705997 10.62890625 6.13671875 C9.96890625 5.14671875 9.30890625 4.15671875 8.62890625 3.13671875 C1.69890625 2.64171875 1.69890625 2.64171875 -5.37109375 2.13671875 C-5.37109375 17.97671875 -5.37109375 33.81671875 -5.37109375 50.13671875 C-5.70109375 50.13671875 -6.03109375 50.13671875 -6.37109375 50.13671875 C-6.39636213 43.17668428 -6.41392597 36.21666155 -6.42602539 29.2565918 C-6.43106716 26.88679563 -6.4379004 24.5170026 -6.4465332 22.1472168 C-6.45860565 18.74917836 -6.46432346 15.3511809 -6.46875 11.953125 C-6.47391129 10.8864711 -6.47907257 9.8198172 -6.48439026 8.72084045 C-6.48446579 7.73989914 -6.48454132 6.75895782 -6.48461914 5.74829102 C-6.48683975 4.88003189 -6.48906036 4.01177277 -6.49134827 3.11720276 C-6.24140659 -0.99911244 -3.48668191 0.00671808 0 0 Z " fill="#6AC7CA" transform="translate(512.37109375,78.86328125)"/>
<path d="M0 0 C1.65 0 3.3 0 5 0 C7 2 7 2 7.1953125 4.8203125 C7.16050781 6.45613281 7.16050781 6.45613281 7.125 8.125 C7.10695313 9.22070312 7.08890625 10.31640625 7.0703125 11.4453125 C7.04710937 12.28835937 7.02390625 13.13140625 7 14 C6.67 14 6.34 14 6 14 C5.67 12.35 5.34 10.7 5 9 C3.35 9.33 1.7 9.66 0 10 C0 6.7 0 3.4 0 0 Z " fill="#39D5D8" transform="translate(55,76)"/>
<path d="M0 0 C2.64590014 -0.02684679 5.29153096 -0.04676357 7.9375 -0.0625 C8.69224609 -0.07087891 9.44699219 -0.07925781 10.22460938 -0.08789062 C12.14994313 -0.09652441 14.07535581 -0.05224333 16 0 C17 1 17 1 17.09765625 3.94140625 C17.08605469 5.13636719 17.07445312 6.33132812 17.0625 7.5625 C17.05347656 8.76003906 17.04445313 9.95757812 17.03515625 11.19140625 C17.02355469 12.11824219 17.01195312 13.04507813 17 14 C16.01 14.495 16.01 14.495 15 15 C15 10.71 15 6.42 15 2 C10.05 2 5.1 2 0 2 C0 1.34 0 0.68 0 0 Z " fill="#61C1C2" transform="translate(574,57)"/>
<path d="M0 0 C3.14777355 2.57545108 3.9664781 5.11251682 5 9 C5.25422863 11.89766648 5.23386386 14.7727647 5.1953125 17.6796875 C5.1924826 18.49245148 5.18965271 19.30521545 5.18673706 20.14260864 C5.17560619 22.72022675 5.15051515 25.29748819 5.125 27.875 C5.11496101 29.63020329 5.10583677 31.38541206 5.09765625 33.140625 C5.07569015 37.42721926 5.04120978 41.7135493 5 46 C4.67 46 4.34 46 4 46 C3.97494385 44.97116699 3.9498877 43.94233398 3.92407227 42.88232422 C3.82953948 39.04675933 3.7294328 35.21135629 3.62768555 31.37597656 C3.58450951 29.71943969 3.54282303 28.06286328 3.50268555 26.40625 C3.4445607 24.0181082 3.38099052 21.6301623 3.31640625 19.2421875 C3.29969376 18.50757294 3.28298126 17.77295837 3.26576233 17.01608276 C3.14929408 12.9269034 2.77630378 9.01688857 2 5 C1.01 4.67 0.02 4.34 -1 4 C-0.67 2.68 -0.34 1.36 0 0 Z " fill="#4AB6B6" transform="translate(217,84)"/>
<path d="M0 0 C4.95 0.99 4.95 0.99 10 2 C9.01 2.495 9.01 2.495 8 3 C8 8.94 8 14.88 8 21 C7.34 21.33 6.68 21.66 6 22 C3.875 21.0625 3.875 21.0625 2 20 C3.32 20 4.64 20 6 20 C6 14.06 6 8.12 6 2 C4.02 2.33 2.04 2.66 0 3 C0 2.01 0 1.02 0 0 Z " fill="#58C3C4" transform="translate(67,28)"/>
<path d="M0 0 C3.53772927 3.53772927 3.93149447 8.00465501 4.265625 12.859375 C4.26046875 14.14328125 4.2553125 15.4271875 4.25 16.75 C4.25773437 18.69132812 4.25773437 18.69132812 4.265625 20.671875 C4 24 4 24 2 27 C1.67 20.73 1.34 14.46 1 8 C0.34 8 -0.32 8 -1 8 C-0.67 5.36 -0.34 2.72 0 0 Z " fill="#62C4C5" transform="translate(493,93)"/>
<path d="M0 0 C0.66 0.99 1.32 1.98 2 3 C1.67 3.33 1.34 3.66 1 4 C0.76924918 5.34747084 0.58846937 6.70377565 0.4375 8.0625 C0.293125 9.361875 0.14875 10.66125 0 12 C-1.65 12 -3.3 12 -5 12 C-5 9.03 -5 6.06 -5 3 C-3.35 2.67 -1.7 2.34 0 2 C0 1.34 0 0.68 0 0 Z " fill="#44CDD0" transform="translate(73,74)"/>
<path d="M0 0 C0.98852189 2.96556567 1.19652048 5.27285604 1.375 8.375 C1.74056069 12.63237605 2.10396739 15.67492552 5 19 C7.06700655 20.32793606 7.06700655 20.32793606 9 21 C8.34 21.33 7.68 21.66 7 22 C2.57981296 19.73323742 -0.41116974 17.76649079 -2 13 C-2.11687338 11.52413385 -2.17501742 10.04293388 -2.1875 8.5625 C-2.20167969 7.80066406 -2.21585938 7.03882813 -2.23046875 6.25390625 C-1.97612666 3.76652685 -1.24017196 2.15191894 0 0 Z " fill="#5FC4C4" transform="translate(30,161)"/>
<path d="M0 0 C2.31 0 4.62 0 7 0 C7 5.94 7 11.88 7 18 C4.94720641 13.89441282 4.7783058 12.19793315 4.875 7.75 C4.89304687 6.67234375 4.91109375 5.5946875 4.9296875 4.484375 C4.96449219 3.25460938 4.96449219 3.25460938 5 2 C4.34 2 3.68 2 3 2 C2.34 7.28 1.68 12.56 1 18 C0.67 18 0.34 18 0 18 C0 12.06 0 6.12 0 0 Z " fill="#4EC5C4" transform="translate(60,118)"/>
<path d="M0 0 C0.33 0 0.66 0 1 0 C1.25115741 6.53009259 1.25115741 6.53009259 0.03125 8.8125 C-1.37260988 11.79038459 -1.42857401 14.47623356 -1.625 17.75 C-1.69976562 18.92046875 -1.77453125 20.0909375 -1.8515625 21.296875 C-1.90054687 22.18890625 -1.94953125 23.0809375 -2 24 C-4.51422248 21.48577752 -4.3249752 20.54922872 -4.375 17.0625 C-4.29250914 10.82619111 -2.45819236 5.67359575 0 0 Z " fill="#58C1C1" transform="translate(439,92)"/>
<path d="M0 0 C1.32 0.33 2.64 0.66 4 1 C3.67 2.32 3.34 3.64 3 5 C3.66 5 4.32 5 5 5 C5.33 9.29 5.66 13.58 6 18 C5.34 18 4.68 18 4 18 C3.89042969 17.15695313 3.78085937 16.31390625 3.66796875 15.4453125 C3.50941406 14.34960938 3.35085938 13.25390625 3.1875 12.125 C3.03667969 11.03445312 2.88585937 9.94390625 2.73046875 8.8203125 C2.25334259 5.68761154 2.25334259 5.68761154 -1 4 C-3.28648848 3.75892674 -3.28648848 3.75892674 -5.6875 3.875 C-6.49574219 3.89304687 -7.30398438 3.91109375 -8.13671875 3.9296875 C-8.75160156 3.95289062 -9.36648438 3.97609375 -10 4 C-10 3.34 -10 2.68 -10 2 C-6.7 2 -3.4 2 0 2 C0 1.34 0 0.68 0 0 Z " fill="#59C2C4" transform="translate(404,89)"/>
<path d="M0 0 C0.33 0 0.66 0 1 0 C1 1.98 1 3.96 1 6 C5.95 6 10.9 6 16 6 C16 6.66 16 7.32 16 8 C10.72 8 5.44 8 0 8 C-1 3 -1 3 0 0 Z " fill="#5BBEBF" transform="translate(168,91)"/>
<path d="M0 0 C1.48693359 0.11794922 1.48693359 0.11794922 3.00390625 0.23828125 C3.80699219 0.38652344 4.61007812 0.53476563 5.4375 0.6875 C5.7675 1.3475 6.0975 2.0075 6.4375 2.6875 C4.58125 2.625625 4.58125 2.625625 2.6875 2.5625 C-1.6830979 2.57020829 -4.07707721 3.30817884 -7.3125 6.3125 C-7.725 6.76625 -8.1375 7.22 -8.5625 7.6875 C-8.2325 6.3675 -7.9025 5.0475 -7.5625 3.6875 C-8.5525 4.0175 -9.5425 4.3475 -10.5625 4.6875 C-10.8925 3.6975 -11.2225 2.7075 -11.5625 1.6875 C-10.94375 1.543125 -10.325 1.39875 -9.6875 1.25 C-3.7332875 -0.32611507 -3.7332875 -0.32611507 0 0 Z " fill="#55C9C5" transform="translate(259.5625,90.3125)"/>
<path d="M0 0 C1.15650011 3.46950032 0.99338114 6.03741477 0.875 9.6875 C0.8136876 15.60414707 1.45167453 19.69098861 4 25 C3.01 25 2.02 25 1 25 C0.67 23.02 0.34 21.04 0 19 C-0.66 19 -1.32 19 -2 19 C-2 13.39 -2 7.78 -2 2 C-1.34 2 -0.68 2 0 2 C0 1.34 0 0.68 0 0 Z " fill="#5EBFC1" transform="translate(453,99)"/>
<path d="M0 0 C-0.99 0.66 -1.98 1.32 -3 2 C-3.99 1.67 -4.98 1.34 -6 1 C-6 1.66 -6 2.32 -6 3 C-6.556875 3.061875 -7.11375 3.12375 -7.6875 3.1875 C-10.93904702 4.32993544 -12.65861516 6.53205381 -15 9 C-15.33 9 -15.66 9 -16 9 C-16 6.69 -16 4.38 -16 2 C-15.67 2.99 -15.34 3.98 -15 5 C-13.96875 4.195625 -12.9375 3.39125 -11.875 2.5625 C-8.21257579 -0.05988488 -4.37354514 -2.18677257 0 0 Z " fill="#59CACD" transform="translate(537,80)"/>
<path d="M0 0 C1.64574566 -0.02688151 3.29161413 -0.04634123 4.9375 -0.0625 C5.85402344 -0.07410156 6.77054688 -0.08570312 7.71484375 -0.09765625 C10 0 10 0 11 1 C11.07226502 2.85287502 11.0838122 4.70833878 11.0625 6.5625 C11.05347656 7.57441406 11.04445313 8.58632812 11.03515625 9.62890625 C11.02355469 10.41136719 11.01195312 11.19382812 11 12 C10.67 12 10.34 12 10 12 C9.67 9.03 9.34 6.06 9 3 C6.03 2.67 3.06 2.34 0 2 C0 1.34 0 0.68 0 0 Z " fill="#68C3C4" transform="translate(624,79)"/>
<path d="M0 0 C-0.33 0.66 -0.66 1.32 -1 2 C-3.328125 2.37890625 -3.328125 2.37890625 -6.25 2.5625 C-9.92119148 2.80559241 -13.40488921 3.20618904 -17 4 C-17 3.34 -17 2.68 -17 2 C-11.16200408 0.30167391 -6.06892629 -0.25287193 0 0 Z " fill="#5CC3C4" transform="translate(196,103)"/>
<path d="M0 0 C0 0.66 0 1.32 0 2 C-1.98 2.33 -3.96 2.66 -6 3 C-6.33 4.65 -6.66 6.3 -7 8 C-8.65 8.33 -10.3 8.66 -12 9 C-9.96209653 3.81260935 -5.6447097 0 0 0 Z " fill="#5BCACA" transform="translate(363,79)"/>
<path d="M0 0 C0 0.66 0 1.32 0 2 C-1.65 2.66 -3.3 3.32 -5 4 C-5.33 8.29 -5.66 12.58 -6 17 C-6.33 17 -6.66 17 -7 17 C-7 11.72 -7 6.44 -7 1 C-3 0 -3 0 0 0 Z " fill="#6CBDC3" transform="translate(73,74)"/>
<path d="M0 0 C0.33 0.66 0.66 1.32 1 2 C1.99 2 2.98 2 4 2 C3.6875 3.875 3.6875 3.875 3 6 C2.01 6.66 1.02 7.32 0 8 C-2 6 -2 6 -2.125 3.375 C-2.08375 2.59125 -2.0425 1.8075 -2 1 C-1.34 0.67 -0.68 0.34 0 0 Z " fill="#3CD3D8" transform="translate(136,146)"/>
<path d="M0 0 C0.33 0.66 0.66 1.32 1 2 C0.49339844 2.68835938 0.49339844 2.68835938 -0.0234375 3.390625 C-3.36308951 7.98192426 -3.36308951 7.98192426 -6 13 C-7.36523593 9.89719106 -6.89965502 8.69368376 -5.8125 5.375 C-4.05218083 2.09716431 -3.4541913 1.0719904 0 0 Z " fill="#55C0C1" transform="translate(358,90)"/>
<path d="M0 0 C-1.2065625 0.556875 -1.2065625 0.556875 -2.4375 1.125 C-5.31172896 2.8109337 -5.31172896 2.8109337 -5.8125 6.1875 C-5.9053125 7.5796875 -5.9053125 7.5796875 -6 9 C-6.66 9 -7.32 9 -8 9 C-8 6.36 -8 3.72 -8 1 C-4.93251126 -0.86240388 -3.40254489 -1.2151946 0 0 Z " fill="#56C0C0" transform="translate(189,115)"/>
<path d="M0 0 C0.33 0.66 0.66 1.32 1 2 C1.99 2 2.98 2 4 2 C3.67 3.98 3.34 5.96 3 8 C2.01 8.33 1.02 8.66 0 9 C0 6.03 0 3.06 0 0 Z " fill="#2BDDE0" transform="translate(596,80)"/>
<path d="M0 0 C3.79588866 0.54226981 5.47211993 2.20127563 8 5 C5.36 5 2.72 5 0 5 C0 3.35 0 1.7 0 0 Z " fill="#57C5C9" transform="translate(274,79)"/>
<path d="M0 0 C-1.15173355 2.46800047 -2.04783565 4.04783565 -4 6 C-6 6 -8 6 -10 6 C-2.92307692 0 -2.92307692 0 0 0 Z " fill="#53C5C3" transform="translate(454,80)"/>
<path d="M0 0 C0 0.99 0 1.98 0 3 C-5.34883721 8 -5.34883721 8 -8 8 C-8 7.34 -8 6.68 -8 6 C-7.01 6 -6.02 6 -5 6 C-5 4.68 -5 3.36 -5 2 C-3.35 1.34 -1.7 0.68 0 0 Z " fill="#57C5C5" transform="translate(490,128)"/>
<path d="M0 0 C2.7710688 2.34591852 3.52059284 4.14776201 4.1875 7.6875 C4.34605469 8.49574219 4.50460938 9.30398437 4.66796875 10.13671875 C4.77753906 10.75160156 4.88710937 11.36648437 5 12 C4.34 11.67 3.68 11.34 3 11 C2.375 7.9375 2.375 7.9375 2 5 C1.01 4.67 0.02 4.34 -1 4 C-0.67 2.68 -0.34 1.36 0 0 Z " fill="#59C2C0" transform="translate(217,84)"/>
<path d="M0 0 C0.66 0.33 1.32 0.66 2 1 C1.375 2.875 1.375 2.875 0 5 C-3.125 6.25 -3.125 6.25 -6 7 C-6.33 5.68 -6.66 4.36 -7 3 C-6.67 3.66 -6.34 4.32 -6 5 C-4.02 3.35 -2.04 1.7 0 0 Z " fill="#5DC6C6" transform="translate(289,81)"/>
<path d="M0 0 C0.66 0.33 1.32 0.66 2 1 C-0.14327284 4.21490927 -1.69521128 5.14609413 -5 7 C-5.99 7.66 -6.98 8.32 -8 9 C-6.4169423 4.7257442 -3.49431596 2.73468206 0 0 Z " fill="#5BBCBD" transform="translate(175,106)"/>
<path d="M0 0 C0.33 0 0.66 0 1 0 C1.04241723 2.33294775 1.04092937 4.66702567 1 7 C0 8 0 8 -2.5625 8.0625 C-3.366875 8.041875 -4.17125 8.02125 -5 8 C-3.625 6 -3.625 6 -2 4 C-1.34 4 -0.68 4 0 4 C0 2.68 0 1.36 0 0 Z " fill="#58B8B9" transform="translate(165,176)"/>
<path d="M0 0 C0.99 0.33 1.98 0.66 3 1 C3 5.29 3 9.58 3 14 C2.34 13.67 1.68 13.34 1 13 C1.01160156 12.31292969 1.02320313 11.62585938 1.03515625 10.91796875 C1.04417969 10.01691406 1.05320312 9.11585938 1.0625 8.1875 C1.07410156 7.29417969 1.08570313 6.40085938 1.09765625 5.48046875 C1.11009967 2.86586209 1.11009967 2.86586209 0 0 Z " fill="#6DBDBF" transform="translate(632,125)"/>
<path d="M0 0 C2 2 2 2 2.125 5.125 C2.08375 6.07375 2.0425 7.0225 2 8 C1.01 8 0.02 8 -1 8 C-0.67 5.36 -0.34 2.72 0 0 Z " fill="#58C8CB" transform="translate(493,93)"/>
<path d="M0 0 C0.99 0.33 1.98 0.66 3 1 C3 1.66 3 2.32 3 3 C3.66 3.33 4.32 3.66 5 4 C2.36 4 -0.28 4 -3 4 C-2.01 2.68 -1.02 1.36 0 0 Z " fill="#43CAC9" transform="translate(70,88)"/>
</svg>
