<?xml version="1.0" encoding="UTF-8"?>
<svg version="1.1" xmlns="http://www.w3.org/2000/svg" width="192" height="209">
<path d="M0 0 C2.31 0 4.62 0 7 0 C7.06058594 1.28777344 7.12117188 2.57554688 7.18359375 3.90234375 C7.26798247 5.58074159 7.3526313 7.25912636 7.4375 8.9375 C7.47681641 9.78763672 7.51613281 10.63777344 7.55664062 11.51367188 C7.59853516 12.32255859 7.64042969 13.13144531 7.68359375 13.96484375 C7.73858032 15.08814087 7.73858032 15.08814087 7.79467773 16.23413086 C7.81771063 18.02461326 7.81771063 18.02461326 9 19 C10.83979695 19.102459 12.68348551 19.13571378 14.52612305 19.1418457 C15.70792648 19.14888016 16.88972992 19.15591461 18.10734558 19.16316223 C19.39578873 19.16732651 20.68423187 19.17149078 22.01171875 19.17578125 C24.02270573 19.19303875 26.03369283 19.21031984 28.04466724 19.22898388 C33.01892445 19.274608 37.99307453 19.31227532 42.9675293 19.32592773 C46.42489113 19.33603957 49.88163681 19.36545012 53.33875465 19.40724754 C55.29172989 19.42547798 57.24486361 19.4229139 59.19792175 19.41999817 C67.18955759 19.53004618 71.125403 20.125403 76.8125 25.8125 C78.55061266 29.01428647 78.9390745 31.34447006 79 35 C77.68973521 39.21765709 76.00478183 42.22129408 72.5 44.9375 C67.44943704 47.08398926 62.72099106 47.16749354 57.28417969 47.20532227 C56.40577423 47.21522186 55.52736877 47.22512146 54.62234497 47.23532104 C51.72221562 47.26687961 48.82206991 47.2916712 45.921875 47.31640625 C43.90976539 47.33698065 41.89766006 47.35797725 39.88555908 47.37937927 C34.59199488 47.43454976 29.29839199 47.48398121 24.00476074 47.53222656 C18.60209718 47.58247824 13.19948972 47.63814517 7.796875 47.69335938 C-2.80203539 47.80087952 -13.40099451 47.90233816 -24 48 C-24.45494062 52.59794729 -24.45494062 52.59794729 -22.80979443 56.70554829 C-20.38698129 58.43846036 -18.82390201 58.38396069 -15.85578918 58.39872742 C-14.25932808 58.41753464 -14.25932808 58.41753464 -12.63061523 58.4367218 C-11.46320801 58.43528671 -10.29580078 58.43385162 -9.09301758 58.43237305 C-7.24893562 58.44766052 -7.24893562 58.44766052 -5.36759949 58.46325684 C-1.99585703 58.48829719 1.37544958 58.50011707 4.74724746 58.50611091 C8.27071953 58.5154833 11.79406506 58.5416857 15.31745911 58.56611633 C21.98970239 58.60981643 28.66192116 58.63834174 35.3342641 58.66143972 C42.93039237 58.68847265 50.52639355 58.73238527 58.12243116 58.77772844 C73.74822216 58.87062493 89.37403708 58.94228265 105 59 C105.04254356 60.99954746 105.04080783 63.00041636 105 65 C103.33659362 66.66340638 101.34844841 66.13671717 99.06074524 66.14717102 C97.99102982 66.15432632 96.92131439 66.16148163 95.81918335 66.16885376 C94.04337387 66.17288712 94.04337387 66.17288712 92.23168945 66.17700195 C90.99272415 66.18357315 89.75375885 66.19014435 88.47724915 66.19691467 C85.06791075 66.21328902 81.6586347 66.2248845 78.24927163 66.2331202 C76.11933093 66.23826663 73.98939462 66.24434265 71.85945702 66.25063133 C65.19593072 66.26969424 58.53241556 66.2839208 51.86886722 66.2922433 C44.17648829 66.30200894 36.48439765 66.32830591 28.79212028 66.36874419 C22.84810401 66.39891901 16.90417027 66.41371361 10.9600789 66.41702431 C7.40955375 66.41937406 3.85933618 66.4283234 0.3088932 66.45348549 C-3.65573685 66.48112696 -7.61998916 66.47693083 -11.5847168 66.4699707 C-12.75846863 66.48278076 -13.93222046 66.49559082 -15.14154053 66.50878906 C-21.38774649 66.46877067 -25.29962991 66.28639524 -30 62 C-33.09660315 57.70471176 -33.42428412 54.26484049 -32.64453125 49.18359375 C-31.41717368 45.02545507 -28.92643281 42.35308519 -25.37379456 39.85778809 C-21.75463926 38.54997976 -18.13271768 38.70835291 -14.33178711 38.71289062 C-13.45820053 38.70605759 -12.58461395 38.69922455 -11.68455505 38.69218445 C-9.79011034 38.67860729 -7.89562908 38.66954704 -6.0011425 38.66447449 C-3.00482773 38.65618773 -0.00881805 38.63568607 2.9874115 38.61193848 C10.42706894 38.55551657 17.86680035 38.52028739 25.30657959 38.48431396 C31.59605627 38.45310215 37.88538457 38.41393902 44.17474174 38.36405945 C47.13011002 38.3439544 50.08536426 38.33566481 53.04078674 38.32775879 C54.84758931 38.31478998 56.65438803 38.3012702 58.46118164 38.28710938 C59.2856781 38.28809128 60.11017456 38.28907318 60.95965576 38.29008484 C64.82510937 38.24776245 66.7087814 38.19414574 70 36 C70.58350505 33.54290625 70.58350505 33.54290625 70 31 C66.85015166 27.89301107 64.45020564 27.62710412 60.11743164 27.63110352 C58.93262711 27.62422012 57.74782257 27.61733673 56.52711487 27.61024475 C54.61297035 27.61948219 54.61297035 27.61948219 52.66015625 27.62890625 C50.65218785 27.61597375 48.64421929 27.60301882 46.63626003 27.58873653 C41.68830674 27.55872923 36.74026097 27.56222552 31.79223633 27.56420898 C29.01403879 27.56425023 26.23623009 27.55367628 23.45811462 27.53245544 C20.84275377 27.51372072 18.22720568 27.51190496 15.61183167 27.52870178 C14.42387497 27.51866623 13.23591827 27.50863068 12.01196289 27.49829102 C10.96923721 27.49845718 9.92651154 27.49862335 8.85218811 27.49879456 C5.26847027 26.87206908 3.60387278 25.48958867 1 23 C-1.43397807 18.8118035 -1.26862743 14.53070041 -1.1875 9.8125 C-1.18685547 9.08869141 -1.18621094 8.36488281 -1.18554688 7.61914062 C-1.14086152 2.28172304 -1.14086152 2.28172304 0 0 Z " fill="#52C7C9" transform="translate(61,118)"/>
<path d="M0 0 C15.18 0 30.36 0 46 0 C46.6311971 6.31197101 47.15073364 12.30443728 47.1328125 18.59765625 C47.13376923 19.35799667 47.13472595 20.1183371 47.13571167 20.90171814 C47.13638473 22.48550501 47.13459235 24.06929479 47.13037109 25.65307617 C47.12494217 28.08844021 47.13037984 30.52362544 47.13671875 32.95898438 C47.13605913 34.50520874 47.13478038 36.051433 47.1328125 37.59765625 C47.13483673 38.3267067 47.13686096 39.05575714 47.13894653 39.80690002 C47.11499737 44.88500263 47.11499737 44.88500263 46 46 C44.55710213 46.09295815 43.10970215 46.11746513 41.66381836 46.11352539 C40.73001343 46.11340454 39.7962085 46.11328369 38.83410645 46.11315918 C37.84599976 46.10804321 36.85789307 46.10292725 35.83984375 46.09765625 C34.93657349 46.09664917 34.03330322 46.09564209 33.10266113 46.09460449 C29.71426126 46.08935512 26.32587941 46.07539398 22.9375 46.0625 C15.368125 46.041875 7.79875 46.02125 0 46 C0 30.82 0 15.64 0 0 Z M14 13 C14 19.27 14 25.54 14 32 C15.65 32 17.3 32 19 32 C19 25.73 19 19.46 19 13 C17.35 13 15.7 13 14 13 Z M28 13 C26.55611429 14.21428988 26.55611429 14.21428988 26.90234375 17.81640625 C26.90901911 19.39846682 26.92098125 20.98051159 26.9375 22.5625 C26.94201172 23.36880859 26.94652344 24.17511719 26.95117188 25.00585938 C26.96299482 27.00393756 26.98093086 29.00197783 27 31 C28.65614657 31.38218767 30.32457024 31.71395102 32 32 C33.44388571 30.78571012 33.44388571 30.78571012 33.09765625 27.18359375 C33.09098089 25.60153318 33.07901875 24.01948841 33.0625 22.4375 C33.05798828 21.63119141 33.05347656 20.82488281 33.04882812 19.99414062 C33.03700518 17.99606244 33.01906914 15.99802217 33 14 C31.34385343 13.61781233 29.67542976 13.28604898 28 13 Z " fill="#47CCCF" transform="translate(41,18)"/>
<path d="M0 0 C1.65148544 0.0001133 1.65148544 0.0001133 3.33633423 0.00022888 C4.52906952 0.00539017 5.72180481 0.01055145 6.95068359 0.01586914 C8.16863617 0.01728409 9.38658875 0.01869904 10.64144897 0.02015686 C14.54403099 0.025769 18.44655632 0.0383236 22.34912109 0.05102539 C24.98974527 0.05603882 27.63037034 0.060602 30.27099609 0.06469727 C36.75539054 0.07574238 43.23975177 0.09249237 49.72412109 0.11352539 C49.72412109 2.09352539 49.72412109 4.07352539 49.72412109 6.11352539 C35.50283406 6.18369523 21.28157398 6.23635292 7.06014919 6.26896191 C0.45646088 6.28461311 -6.14711107 6.30584183 -12.75073242 6.33984375 C-19.12440573 6.37245604 -25.49796715 6.39038251 -31.87171745 6.39815712 C-34.30256855 6.40369722 -36.73341357 6.41451564 -39.164217 6.43071556 C-42.57079393 6.45251414 -45.97690939 6.45549122 -49.38354492 6.45410156 C-50.88866638 6.4702803 -50.88866638 6.4702803 -52.42419434 6.48678589 C-58.13739791 6.46159157 -62.24763525 5.91179835 -67.27587891 3.11352539 C-67.60587891 2.45352539 -67.93587891 1.79352539 -68.27587891 1.11352539 C-67.51610748 1.115746 -66.75633606 1.11796661 -65.97354126 1.12025452 C-58.8221186 1.14027088 -51.67070947 1.15550641 -44.51926613 1.16533756 C-40.8424218 1.17056171 -37.16560057 1.17765089 -33.48876953 1.18896484 C-29.94208931 1.19981032 -26.39543133 1.20580576 -22.84873581 1.20840263 C-21.49391708 1.21025388 -20.1390996 1.21386877 -18.78429031 1.21925545 C-16.89038526 1.22648777 -14.99645793 1.22693363 -13.10253906 1.22705078 C-12.02332184 1.22927139 -10.94410461 1.231492 -9.83218384 1.23377991 C-6.35688012 1.07029355 -3.6379008 -0.00830571 0 0 Z " fill="#47CCD0" transform="translate(116.27587890625,176.886474609375)"/>
<path d="M0 0 C4.31248609 -0.02886537 8.62494762 -0.04675255 12.9375 -0.0625 C14.16919922 -0.07087891 15.40089844 -0.07925781 16.66992188 -0.08789062 C17.83974609 -0.09111328 19.00957031 -0.09433594 20.21484375 -0.09765625 C21.84087524 -0.10551147 21.84087524 -0.10551147 23.49975586 -0.11352539 C26 0 26 0 27 1 C27.12667764 3.99018161 27.18520838 6.94694108 27.1875 9.9375 C27.19974609 10.77474609 27.21199219 11.61199219 27.22460938 12.47460938 C27.22750977 13.67633789 27.22750977 13.67633789 27.23046875 14.90234375 C27.23457764 15.63960693 27.23868652 16.37687012 27.24291992 17.13647461 C27 19 27 19 25 21 C22.58569336 21.24291992 22.58569336 21.24291992 19.58984375 21.23046875 C18.51798828 21.22853516 17.44613281 21.22660156 16.34179688 21.22460938 C15.21837891 21.21236328 14.09496094 21.20011719 12.9375 21.1875 C11.24657227 21.1865332 11.24657227 21.1865332 9.52148438 21.18554688 C1.14013317 21.14013317 1.14013317 21.14013317 0 20 C-0.08669432 18.5112814 -0.10703494 17.018555 -0.09765625 15.52734375 C-0.09443359 14.62822266 -0.09121094 13.72910156 -0.08789062 12.80273438 C-0.07951172 11.85720703 -0.07113281 10.91167969 -0.0625 9.9375 C-0.05798828 8.98810547 -0.05347656 8.03871094 -0.04882812 7.06054688 C-0.0370011 4.70696935 -0.02052025 2.35351523 0 0 Z " fill="#4ACACC" transform="translate(51,95)"/>
<path d="M0 0 C2.31 0 4.62 0 7 0 C7.06058594 1.28777344 7.12117188 2.57554688 7.18359375 3.90234375 C7.26798247 5.58074159 7.3526313 7.25912636 7.4375 8.9375 C7.47681641 9.78763672 7.51613281 10.63777344 7.55664062 11.51367188 C7.61948242 12.72700195 7.61948242 12.72700195 7.68359375 13.96484375 C7.72025146 14.7137085 7.75690918 15.46257324 7.79467773 16.23413086 C7.81771063 18.02461326 7.81771063 18.02461326 9 19 C10.85553031 19.10770882 12.71511193 19.1462672 14.57373047 19.15771484 C15.76521698 19.16797699 16.95670349 19.17823914 18.18429565 19.18881226 C19.48214996 19.19611359 20.78000427 19.20341492 22.1171875 19.2109375 C23.45379471 19.22389304 24.79039384 19.2377082 26.12698364 19.25234985 C31.8158644 19.31405894 37.50472451 19.36801738 43.19384766 19.40136719 C46.67056758 19.4222997 50.14689216 19.45759295 53.62338638 19.50212479 C55.5947761 19.52319793 57.56631517 19.52833797 59.53781128 19.53329468 C60.73560211 19.54986115 61.93339294 19.56642761 63.16748047 19.58349609 C64.75180374 19.59562637 64.75180374 19.59562637 66.36813354 19.60800171 C69 20 69 20 70.86453247 21.33853149 C72 23 72 23 72 26 C72.66 26.33 73.32 26.66 74 27 C72.35 27.33 70.7 27.66 69 28 C68.505 27.01 68.505 27.01 68 26 C67.22405487 26.0030162 66.44810974 26.00603241 65.64865112 26.00914001 C58.32143629 26.0314229 50.99539317 26.02014096 43.66833305 25.97153378 C39.9016572 25.94771966 36.1358647 25.93670297 32.36914062 25.95532227 C28.73107832 25.97282823 25.09459971 25.95620901 21.45672989 25.91632271 C20.07175551 25.90705728 18.68664327 25.90990963 17.30172348 25.92530632 C6.54228165 26.03326933 6.54228165 26.03326933 2.80021667 23.52622986 C-0.53574282 19.85614371 -1.68252965 16.74749475 -1.57617188 11.79492188 C-1.53041016 11.09947266 -1.48464844 10.40402344 -1.4375 9.6875 C-1.41880859 8.97271484 -1.40011719 8.25792969 -1.38085938 7.52148438 C-1.20242844 2.40485689 -1.20242844 2.40485689 0 0 Z " fill="#45CDD0" transform="translate(61,118)"/>
<path d="M0 0 C1.04102119 1.21709908 1.04102119 1.21709908 2.10307312 2.45878601 C5.52524054 5.46074639 6.87906618 5.63253948 11.35083008 5.65942383 C13.24222466 5.68888847 13.24222466 5.68888847 15.17182922 5.71894836 C16.53773134 5.71550544 17.90363218 5.71152046 19.26953125 5.70703125 C20.67488237 5.72015366 22.08021466 5.73545957 23.48551941 5.75285339 C27.17302426 5.79265426 30.8600352 5.80289051 34.54772949 5.80688477 C38.31517472 5.81622571 42.08233088 5.85364509 45.84960938 5.88867188 C53.23307546 5.95319731 60.61624562 5.98647848 68 6 C68.495 7.485 68.495 7.485 69 9 C70.32 8.67 71.64 8.34 73 8 C72.01 5.525 72.01 5.525 71 3 C74.35435922 4.38801071 76.11290303 5.88629 78 9 C78 9.99 78 10.98 78 12 C76.35 12.33 74.7 12.66 73 13 C73 14.98 73 16.96 73 19 C71.35 19.66 69.7 20.32 68 21 C68.33 20.443125 68.66 19.88625 69 19.3125 C70.17817092 16.58797975 70.45181189 14.93677726 70 12 C66.84625498 8.89670886 64.45108697 8.6271033 60.11743164 8.63110352 C58.93262711 8.62422012 57.74782257 8.61733673 56.52711487 8.61024475 C54.61297035 8.61948219 54.61297035 8.61948219 52.66015625 8.62890625 C50.65218785 8.61597375 48.64421929 8.60301882 46.63626003 8.58873653 C41.68830674 8.55872923 36.74026097 8.56222552 31.79223633 8.56420898 C29.01403879 8.56425023 26.23623009 8.55367628 23.45811462 8.53245544 C20.84275377 8.51372072 18.22720568 8.51190496 15.61183167 8.52870178 C14.42387497 8.51866623 13.23591827 8.50863068 12.01196289 8.49829102 C10.96923721 8.49845718 9.92651154 8.49862335 8.85218811 8.49879456 C5.268214 7.87202426 3.58708416 6.50911391 1 4 C0.1875 1.75 0.1875 1.75 0 0 Z " fill="#58C4C4" transform="translate(61,137)"/>
<path d="M0 0 C2.64 0 5.28 0 8 0 C8 5.61 8 11.22 8 17 C5.36 17 2.72 17 0 17 C0 11.39 0 5.78 0 0 Z " fill="#52C2C4" transform="translate(67,76)"/>
<path d="M0 0 C2.64 0 5.28 0 8 0 C8 5.61 8 11.22 8 17 C5.36 17 2.72 17 0 17 C0 11.39 0 5.78 0 0 Z " fill="#4CC5C6" transform="translate(54,76)"/>
<path d="M0 0 C2.31 0 4.62 0 7 0 C7 5.61 7 11.22 7 17 C6.67 17 6.34 17 6 17 C6 14.69 6 12.38 6 10 C4.02 10.33 2.04 10.66 0 11 C0 7.37 0 3.74 0 0 Z " fill="#4DC4C3" transform="translate(61,118)"/>
<path d="M0 0 C0.66 0 1.32 0 2 0 C3.35439668 2.70879335 3.06501451 5.00933268 3 8 C1.35 7.67 -0.3 7.34 -2 7 C-1.42415568 4.61435923 -0.77772405 2.33317216 0 0 Z " fill="#47CBD2" transform="translate(64,120)"/>
<path d="M0 0 C2.625 -0.1875 2.625 -0.1875 5 0 C5.33 0.99 5.66 1.98 6 3 C5.21625 3.12375 4.4325 3.2475 3.625 3.375 C0.85942178 3.79117993 0.85942178 3.79117993 -1 6 C-1.33 5.01 -1.66 4.02 -2 3 C-1.34 2.01 -0.68 1.02 0 0 Z " fill="#4FCCCC" transform="translate(68,50)"/>
</svg>
